<svg width="164" height="32" viewBox="0 0 164 32" fill="none" xmlns="http://www.w3.org/2000/svg">
<path d="M22.9997 11.92C22.733 9.41333 21.853 7.46667 20.3597 6.08C18.893 4.69333 16.9997 4 14.6797 4C13.2664 4 11.933 4.30667 10.6797 4.92C9.45302 5.50667 8.37302 6.36 7.43969 7.48C6.50635 8.6 5.77302 9.94667 5.23969 11.52C4.70635 13.0933 4.43969 14.8667 4.43969 16.84C4.43969 19.3467 4.91969 21.56 5.87969 23.48C6.83969 25.4 8.13302 26.8933 9.75969 27.96C11.3864 29.0267 13.1864 29.56 15.1597 29.56C16.893 29.56 18.5997 29.1733 20.2797 28.4C21.9597 27.6 23.333 26.4533 24.3997 24.96L25.4397 25.8C24.293 27.3733 23.053 28.5867 21.7197 29.44C20.3864 30.2933 19.053 30.8667 17.7197 31.16C16.413 31.48 15.213 31.64 14.1197 31.64C12.1197 31.64 10.2797 31.28 8.59969 30.56C6.94635 29.84 5.50635 28.84 4.27969 27.56C3.07969 26.2533 2.14635 24.7467 1.47969 23.04C0.839688 21.3067 0.519688 19.44 0.519688 17.44C0.519688 15.5467 0.799688 13.7067 1.35969 11.92C1.94635 10.1333 2.81302 8.52 3.95969 7.08C5.10635 5.64 6.54635 4.49333 8.27969 3.64C10.0397 2.78667 12.0797 2.36 14.3997 2.36C15.893 2.36 17.3064 2.56 18.6397 2.96C19.973 3.36 21.253 3.97333 22.4797 4.8L22.2797 2.64H24.4397V11.92H22.9997ZM28.0084 29.8C28.8351 29.8 29.4084 29.6 29.7284 29.2C30.0484 28.7733 30.2351 28.2 30.2884 27.48C30.3418 26.7333 30.3684 25.88 30.3684 24.92V6C30.3684 5.57333 30.3684 5.17333 30.3684 4.8C30.3951 4.4 30.4351 3.93333 30.4884 3.4C30.0084 3.42667 29.5284 3.45333 29.0484 3.48C28.5951 3.50667 28.1284 3.53333 27.6484 3.56V1.88C28.8218 1.88 29.7284 1.82666 30.3684 1.72C31.0351 1.61333 31.5284 1.48 31.8484 1.32C32.1951 1.16 32.4618 0.986665 32.6484 0.799998H33.8084L33.8484 26.76C33.8484 27.2933 33.8351 27.7733 33.8084 28.2C33.7818 28.6 33.7284 29.0267 33.6484 29.48C34.0751 29.4533 34.4884 29.44 34.8884 29.44C35.3151 29.4133 35.7418 29.3867 36.1684 29.36V31H28.0084V29.8ZM48.9869 31.64C47.1469 31.64 45.4802 31.2133 43.9869 30.36C42.5202 29.48 41.3602 28.2533 40.5069 26.68C39.6535 25.08 39.2269 23.2 39.2269 21.04C39.2269 19.1733 39.6402 17.4267 40.4669 15.8C41.3202 14.1733 42.5069 12.8667 44.0269 11.88C45.5469 10.8667 47.3069 10.36 49.3069 10.36C50.4269 10.36 51.4669 10.5467 52.4269 10.92C53.4135 11.2667 54.2802 11.8133 55.0269 12.56C55.7735 13.28 56.3602 14.2 56.7869 15.32C57.2135 16.4133 57.4269 17.7067 57.4269 19.2L43.3469 19.44C43.3469 21.4667 43.5602 23.2533 43.9869 24.8C44.4402 26.32 45.1602 27.5067 46.1469 28.36C47.1335 29.1867 48.4002 29.6 49.9469 29.6C50.7735 29.6 51.6135 29.4533 52.4669 29.16C53.3469 28.8667 54.1602 28.4667 54.9069 27.96C55.6535 27.4533 56.2535 26.8933 56.7069 26.28L57.6669 27.08C56.9469 28.2 56.0802 29.0933 55.0669 29.76C54.0535 30.4267 53.0135 30.9067 51.9469 31.2C50.8802 31.4933 49.8935 31.64 48.9869 31.64ZM43.4669 17.76H53.6669C53.6669 16.8 53.5202 15.88 53.2269 15C52.9602 14.0933 52.5069 13.36 51.8669 12.8C51.2269 12.2133 50.3869 11.92 49.3469 11.92C47.8002 11.92 46.5069 12.3867 45.4669 13.32C44.4535 14.2267 43.7869 15.7067 43.4669 17.76ZM73.0684 31C72.9884 30.5467 72.9351 30.1467 72.9084 29.8C72.8818 29.4533 72.8418 29.0933 72.7884 28.72C71.8818 29.6267 70.8951 30.3467 69.8284 30.88C68.7884 31.3867 67.6818 31.64 66.5084 31.64C64.4818 31.64 62.9751 31.1867 61.9884 30.28C61.0018 29.3467 60.5084 28.2133 60.5084 26.88C60.5084 25.6533 60.8818 24.6 61.6284 23.72C62.4018 22.8133 63.3884 22.08 64.5884 21.52C65.8151 20.9333 67.1351 20.5067 68.5484 20.24C69.9884 19.9467 71.3751 19.8133 72.7084 19.84V17.36C72.7084 16.4267 72.6284 15.5467 72.4684 14.72C72.3084 13.8933 71.9618 13.2133 71.4284 12.68C70.8951 12.1467 70.0418 11.8667 68.8684 11.84C68.0951 11.8133 67.2951 11.96 66.4684 12.28C65.6684 12.6 65.0818 13.1467 64.7084 13.92C64.9218 14.1333 65.0551 14.3867 65.1084 14.68C65.1884 14.9467 65.2284 15.2 65.2284 15.44C65.2284 15.76 65.0951 16.1333 64.8284 16.56C64.5618 16.96 64.0951 17.1467 63.4284 17.12C62.8684 17.12 62.4418 16.9333 62.1484 16.56C61.8551 16.16 61.7084 15.6933 61.7084 15.16C61.7084 14.2533 62.0418 13.44 62.7084 12.72C63.4018 12 64.3484 11.4267 65.5484 11C66.7484 10.5733 68.1084 10.36 69.6284 10.36C71.8684 10.36 73.5218 10.96 74.5884 12.16C75.6551 13.3333 76.1751 15.2 76.1484 17.76C76.1484 18.7467 76.1484 19.7467 76.1484 20.76C76.1484 21.7467 76.1351 22.7467 76.1084 23.76C76.1084 24.7467 76.1084 25.7467 76.1084 26.76C76.1084 27.1867 76.0951 27.6133 76.0684 28.04C76.0418 28.4667 76.0018 28.9467 75.9484 29.48C76.4284 29.4533 76.8951 29.4267 77.3484 29.4C77.8284 29.3733 78.3084 29.3467 78.7884 29.32V31H73.0684ZM72.7084 21.2C71.8018 21.2267 70.8418 21.3467 69.8284 21.56C68.8418 21.7467 67.9218 22.04 67.0684 22.44C66.2418 22.84 65.5618 23.3733 65.0284 24.04C64.5218 24.68 64.2818 25.4667 64.3084 26.4C64.3618 27.3867 64.6818 28.1333 65.2684 28.64C65.8818 29.12 66.6018 29.36 67.4284 29.36C68.5218 29.36 69.4684 29.16 70.2684 28.76C71.0951 28.3333 71.9084 27.7467 72.7084 27C72.6818 26.7067 72.6684 26.3867 72.6684 26.04C72.6684 25.6933 72.6684 25.3333 72.6684 24.96C72.6684 24.8267 72.6684 24.4 72.6684 23.68C72.6951 22.96 72.7084 22.1333 72.7084 21.2ZM81.5334 31V29.8C82.3601 29.8 82.9334 29.6 83.2534 29.2C83.5734 28.7733 83.7601 28.2 83.8134 27.48C83.8668 26.7333 83.8934 25.88 83.8934 24.92L83.9334 15.8C83.9334 15.3733 83.9334 14.9467 83.9334 14.52C83.9601 14.0933 84.0134 13.6533 84.0934 13.2C83.6134 13.2267 83.1334 13.2533 82.6534 13.28C82.2001 13.3067 81.7334 13.3333 81.2534 13.36V11.68C82.4268 11.68 83.3068 11.6267 83.8934 11.52C84.5068 11.4133 84.9601 11.28 85.2534 11.12C85.5468 10.96 85.7868 10.7867 85.9734 10.6H87.1334C87.1601 10.7867 87.1734 11 87.1734 11.24C87.2001 11.48 87.2268 11.7467 87.2534 12.04C87.2801 12.3333 87.2934 12.6667 87.2934 13.04C87.8801 12.5333 88.5201 12.08 89.2134 11.68C89.9334 11.28 90.6801 10.96 91.4534 10.72C92.2534 10.48 93.0401 10.36 93.8134 10.36C96.1334 10.36 97.8268 11.0933 98.8934 12.56C99.9601 14 100.493 16.2533 100.493 19.32V26.76C100.493 27.2933 100.48 27.7733 100.453 28.2C100.453 28.6 100.413 29.0267 100.333 29.48C100.76 29.4533 101.173 29.44 101.573 29.44C102 29.4133 102.427 29.3867 102.853 29.36V31H94.6934V29.8C95.5201 29.8 96.0934 29.6 96.4134 29.2C96.7334 28.7733 96.9201 28.2 96.9734 27.48C97.0268 26.7333 97.0534 25.88 97.0534 24.92V19.32C97.0268 17.0267 96.6401 15.2933 95.8934 14.12C95.1734 12.9467 94.0268 12.3733 92.4534 12.4C91.4934 12.4267 90.5468 12.68 89.6134 13.16C88.7068 13.64 87.9468 14.2533 87.3334 15C87.3601 15.2133 87.3734 15.4533 87.3734 15.72C87.3734 15.9867 87.3734 16.2667 87.3734 16.56L87.3334 26.76C87.3334 27.2933 87.3201 27.7733 87.2934 28.2C87.2934 28.6 87.2534 29.0267 87.1734 29.48C87.6001 29.4533 88.0134 29.44 88.4134 29.44C88.8401 29.4133 89.2668 29.3867 89.6934 29.36V31H81.5334ZM119.082 31.64C116.415 31.64 114.055 31.08 112.002 29.96C109.948 28.84 108.348 27.2267 107.202 25.12C106.055 23.0133 105.482 20.5067 105.482 17.6C105.482 15.7067 105.762 13.8667 106.322 12.08C106.908 10.2667 107.775 8.62667 108.922 7.16C110.095 5.69333 111.548 4.53333 113.282 3.68C115.042 2.8 117.082 2.36 119.402 2.36C120.362 2.36 121.335 2.45333 122.322 2.64C123.308 2.8 124.255 3.05333 125.162 3.4C126.095 3.72 126.935 4.10667 127.682 4.56L127.522 2.64H129.722V11.8H128.282C128.175 10.12 127.722 8.70667 126.922 7.56C126.148 6.38666 125.135 5.49333 123.882 4.88C122.628 4.26666 121.228 3.96 119.682 3.96C118.268 3.96 116.935 4.28 115.682 4.92C114.455 5.53333 113.362 6.41333 112.402 7.56C111.468 8.68 110.735 10.0133 110.202 11.56C109.668 13.1067 109.402 14.8133 109.402 16.68C109.402 19.1867 109.855 21.4267 110.762 23.4C111.668 25.3733 112.922 26.92 114.522 28.04C116.148 29.16 118.015 29.72 120.122 29.72C120.842 29.72 121.588 29.6533 122.362 29.52C123.162 29.3867 123.948 29.1733 124.722 28.88C125.522 28.56 126.268 28.1733 126.962 27.72V22.84C126.962 22.2 126.962 21.56 126.962 20.92C126.962 20.2533 126.962 19.6 126.962 18.96C126.508 18.9867 126.042 19.0133 125.562 19.04C125.082 19.0667 124.615 19.0933 124.162 19.12V17.36H133.202V18.68C132.455 18.68 131.882 18.88 131.482 19.28C131.082 19.6533 130.802 20.12 130.642 20.68C130.482 21.2133 130.388 21.7467 130.362 22.28C130.335 22.7867 130.322 23.1733 130.322 23.44V29.56H129.242C128.815 29.56 128.228 29.64 127.482 29.8C126.735 29.96 125.882 30.2267 124.922 30.6C124.095 30.92 123.135 31.1733 122.042 31.36C120.948 31.5467 119.962 31.64 119.082 31.64ZM149.643 31.64C147.109 31.64 144.936 31.2133 143.123 30.36C141.309 29.5067 139.829 28.3733 138.683 26.96C137.563 25.52 136.736 23.9333 136.202 22.2C135.669 20.4667 135.403 18.7333 135.403 17C135.403 15.32 135.683 13.6267 136.243 11.92C136.803 10.1867 137.656 8.6 138.803 7.16C139.976 5.72 141.429 4.56 143.163 3.68C144.923 2.8 146.976 2.36 149.323 2.36C151.776 2.36 153.896 2.8 155.683 3.68C157.469 4.56 158.936 5.73333 160.083 7.2C161.256 8.64 162.123 10.2133 162.683 11.92C163.269 13.6267 163.563 15.32 163.563 17C163.563 18.6533 163.283 20.3467 162.723 22.08C162.163 23.7867 161.296 25.3733 160.123 26.84C158.976 28.28 157.536 29.44 155.803 30.32C154.069 31.2 152.016 31.64 149.643 31.64ZM149.723 30C151.376 30 152.816 29.6533 154.043 28.96C155.269 28.24 156.283 27.2933 157.082 26.12C157.909 24.92 158.523 23.6 158.923 22.16C159.349 20.6933 159.563 19.2267 159.563 17.76C159.563 16.1067 159.336 14.4667 158.883 12.84C158.429 11.2133 157.763 9.73333 156.883 8.4C156.003 7.06667 154.909 6 153.603 5.2C152.323 4.37333 150.856 3.96 149.203 3.96C147.549 3.96 146.096 4.32 144.843 5.04C143.616 5.76 142.589 6.72 141.763 7.92C140.963 9.09333 140.349 10.4133 139.923 11.88C139.523 13.32 139.323 14.7867 139.323 16.28C139.323 17.7467 139.523 19.28 139.923 20.88C140.349 22.48 140.989 23.9733 141.843 25.36C142.696 26.7467 143.776 27.8667 145.083 28.72C146.389 29.5733 147.936 30 149.723 30Z" fill="#ffffff"/>
<defs>
<linearGradient id="paint0_linear_162_10505" x1="-46" y1="21.0943" x2="176.267" y2="-68.3716" gradientUnits="userSpaceOnUse">
<stop stop-color="#018981"/>
<stop offset="0.49" stop-color="#01AE6B"/>
<stop offset="1" stop-color="#9CE04E"/>
</linearGradient>
</defs>
</svg>
